# xmcd
#
# Track frame offsets:
#	150
#	11337
#	31379
#	44104
#	63328
#	88329
#	107715
#	129308
#	144227
#	161632
#	176878
#	194200
#	208047
#	226651
#	241077
#
# Disc length: 3482 seconds
#
# Revision: 1
# Processed by: cddbd v1.5.1PL0 Copyright (c) Steve Scherf et al.
# Submitted via: audiograbber 1.81.03
#
DISCID=d10d980f
DTITLE=The`Vipers]p[Deb`Cleveland - Tickle My Toes
DYEAR=2004
DGENRE=Blues
TTITLE0=Ring Dang Dilly
TTITLE1=I Hate To See The Sun Go Down
TTITLE2=Goin Home Baby
TTITLE3=I Got My Mojo Working 
TTITLE4=Tickle My Toes
TTITLE5=Going To The Vets Club
TTITLE6=Good Morning Little School Girl
TTITLE7=Slowly But Surely (Time Goes By)
TTITLE8=Hard Times
TTITLE9=Congo Mombo
TTITLE10=Tired Of Travelin
TTITLE11=Letter To My Daughter
TTITLE12=You Win In
TTITLE13=Wild Women Don't Have The Blues
TTITLE14=I Ain't Drunk I Just Been Drinking
EXTD=
EXTT0=
EXTT1=
EXTT2=
EXTT3=
EXTT4=
EXTT5=
EXTT6=
EXTT7=
EXTT8=
EXTT9=
EXTT10=
EXTT11=
EXTT12=
EXTT13=
EXTT14=
PLAYORDER=
